<svg width="93" height="19" viewBox="0 0 93 19" fill="none" xmlns="http://www.w3.org/2000/svg">
<path d="M79.4612 0C79.732 0 79.9515 0.215226 79.9515 0.48072V3.07009C79.9515 3.33559 79.732 3.55081 79.4612 3.55081H74.5445C74.2532 3.55081 73.9713 3.65256 73.7495 3.83784L72.8701 4.57262C72.5967 4.80096 72.4393 5.13531 72.4393 5.48738V13.4834C72.4393 13.8355 72.5967 14.1698 72.8701 14.3982L73.8519 15.2185C74.0737 15.4037 74.3555 15.5055 74.6468 15.5055H79.4612C79.732 15.5055 79.9514 15.7207 79.9514 15.9862L79.9515 18.4888C79.9515 18.7543 79.732 18.9695 79.4612 18.9695H73.3285C73.294 18.9695 73.2597 18.9681 73.2258 18.9653C73.2077 18.9639 73.1898 18.962 73.1719 18.9598L73.1503 18.9569C73.1354 18.9547 73.1206 18.9524 73.1059 18.9497C73.026 18.9353 72.9407 18.9241 72.8533 18.9126C72.5601 18.874 72.2446 18.8325 72.0369 18.659L69.1114 16.2149C68.9113 16.0478 68.7106 15.927 68.6083 15.6896C68.5836 15.6321 68.57 15.569 68.57 15.5027V3.93059C68.57 3.79366 68.5992 3.6634 68.6518 3.5455C68.6713 3.5018 68.6906 3.45642 68.7103 3.41026C68.8112 3.17302 68.9212 2.91481 69.1114 2.75587L72.0369 0.311785C72.2554 0.129243 72.593 0.0774245 72.8902 0.0318243C72.9309 0.0255779 72.9708 0.0194442 73.0096 0.0131132C73.0624 0.00449796 73.1166 0 73.1719 0H79.4612Z" fill="#9F47F6"/>
<path d="M89.2277 0.502702C89.2277 0.241911 89.4428 0.0304976 89.7082 0.0304976H92.5194C92.7848 0.0304976 93 0.241911 93 0.502702V18.5268C93 18.7876 92.7848 18.999 92.5194 18.999H89.7082C89.4428 18.999 89.2277 18.7876 89.2277 18.5268V11.8934C89.2277 11.3718 88.7973 10.949 88.2664 10.949H86.1306C85.5997 10.949 85.1693 11.3718 85.1693 11.8934V18.5268C85.1693 18.7876 84.9541 18.999 84.6887 18.999H81.8568C81.5914 18.999 81.3762 18.7876 81.3762 18.5268V0.502702C81.3762 0.241911 81.5914 0.0304976 81.8568 0.0304976H84.6887C84.9541 0.0304976 85.1693 0.241911 85.1693 0.502702V6.927C85.1693 7.44859 85.5997 7.8714 86.1306 7.8714H88.2664C88.7973 7.8714 89.2277 7.44859 89.2277 6.927V0.502702Z" fill="#9F47F6"/>
<path fill-rule="evenodd" clip-rule="evenodd" d="M10.4321 0.0304976C10.7412 0.0304976 11.005 0.251304 11.0557 0.552495L11.4664 2.99375C11.5305 3.37425 11.2334 3.72047 10.8428 3.72047H5.42132C5.25488 3.72047 5.09139 3.76379 4.94724 3.84597L4.20984 4.26646C3.91649 4.43386 3.73576 4.74294 3.73576 5.07755V13.907C3.73576 14.2415 3.91649 14.5507 4.20984 14.718L5.05844 15.2019C5.20257 15.2841 5.36608 15.3274 5.53252 15.3274H9.11388C9.70745 15.3274 10.1551 14.7949 10.0459 14.2185L8.73294 7.29094C8.66035 6.90787 8.9577 6.55679 9.3531 6.5586L11.4949 6.56879C11.8031 6.57031 12.0675 6.78989 12.121 7.08907L14.1189 18.252C14.1868 18.6319 13.8997 18.9693 13.5083 18.9695H4.74081C4.63563 18.9695 4.52972 18.9547 4.4246 18.9506C4.24317 18.9434 4.06077 18.8938 3.8926 18.7979L0.582224 16.9101C0.23993 16.7149 0.0365942 16.3732 0.00649723 16.0115C0.002212 15.9798 0 15.9474 0 15.9145V3.11496C0 3.09383 0.000910094 3.07288 0.00269365 3.05231C0.00770437 2.66181 0.214993 2.28379 0.582227 2.0744L3.89261 0.186554C4.07773 0.0809834 4.28009 0.0316023 4.47944 0.0330497C4.49635 0.033164 4.51324 0.0304976 4.53016 0.0304976H10.4321Z" fill="#9F47F6"/>
<path d="M12.7248 0.672476C12.6636 0.321777 12.929 0 13.2795 0H15.8686C16.1417 0 16.3755 0.199146 16.4232 0.472465L17.7745 8.21234C17.8295 8.52731 18.2742 8.52731 18.3292 8.21233L19.6805 0.472465C19.7282 0.199146 19.962 0 20.2352 0H22.8243C23.1748 0 23.4402 0.321777 23.3789 0.672476L21.401 12.0014C21.3533 12.2747 21.1195 12.4739 20.8464 12.4739H20.1861C20.0305 12.4739 19.9044 12.602 19.9044 12.7601V18.397C19.9044 18.7132 19.6522 18.9695 19.3411 18.9695H16.7344C16.4233 18.9695 16.1711 18.7132 16.1711 18.397V12.7601C16.1711 12.602 16.045 12.4739 15.8894 12.4739H15.2574C14.9842 12.4739 14.7504 12.2747 14.7027 12.0014L12.7248 0.672476Z" fill="#9F47F6"/>
<path d="M27.8882 0C28.3061 0 28.6638 0.303772 28.7368 0.720687L30.2175 9.17773C30.2727 9.49271 30.7187 9.49271 30.7738 9.17773L32.2546 0.720687C32.3276 0.303772 32.6853 0 33.1031 0H35.2941C35.712 0 36.0697 0.303772 36.1427 0.720687L37.5935 9.00686C37.6024 9.05721 37.6068 9.10826 37.6068 9.1594V9.33547C37.6068 9.39662 37.6004 9.45759 37.5879 9.5174L36.2671 15.7997C36.1217 16.4915 35.1416 16.4745 35.0196 15.7781L34.2628 11.4557C34.2077 11.1408 33.7617 11.1408 33.7065 11.4557L32.523 18.2488C32.45 18.6657 32.0924 18.9695 31.6745 18.9695H29.3085C28.8907 18.9695 28.533 18.6657 28.46 18.2488L27.2873 11.47C27.2322 11.155 26.7862 11.155 26.7311 11.47L25.5441 18.2488C25.4711 18.6657 25.1135 18.9695 24.6956 18.9695H22.6866C22.1504 18.9695 21.7444 18.4787 21.8381 17.9437L24.8537 0.720687C24.9267 0.303772 25.2844 0 25.7022 0H27.8882Z" fill="#9F47F6"/>
<path d="M58.2726 0.0304994L46.7625 0.030498C46.4703 0.030498 46.2496 0.301471 46.3024 0.595475L46.8082 3.4154C46.849 3.6426 47.0426 3.8076 47.2684 3.8076H50.6227C50.7519 3.8076 50.8566 3.91474 50.8566 4.0469V18.5214C50.8566 18.7857 51.0661 19 51.3245 19H54.0608C54.3192 19 54.5287 18.7857 54.5287 18.5214V4.0469C54.5287 3.91474 54.6334 3.8076 54.7626 3.8076H57.0756C57.4801 3.8076 57.808 4.14026 57.808 4.55062V18.5234C57.808 18.7866 58.0166 19 58.2739 19H60.3498L60.3521 19L67.733 19C68.1663 19 68.3649 18.448 68.0351 18.1606L65.2044 15.6939C64.8673 15.4002 64.4389 15.2388 63.996 15.2388H62.4166C61.902 15.2388 61.4849 14.8121 61.4849 14.2857V11.9402C61.4849 11.4138 61.902 10.987 62.4166 10.987H65.655C65.9123 10.987 66.1209 10.7737 66.1209 10.5105V8.35653C66.1209 8.09332 65.9123 7.87996 65.655 7.87996H62.4166C61.902 7.87996 61.4849 7.45322 61.4849 6.92681V4.02998C61.4849 3.89838 61.5891 3.79169 61.7178 3.79169H64.5613C64.9488 3.79169 65.3237 3.65051 65.6187 3.39345L68.5147 0.869863C68.8445 0.582479 68.6458 0.0305013 68.2126 0.0305013L61.0207 0.0305009L61.019 0.0304976H58.2739C58.2735 0.0304976 58.2731 0.0304982 58.2726 0.0304994Z" fill="#9F47F6"/>
<path fill-rule="evenodd" clip-rule="evenodd" d="M45.1851 18.2242C45.2703 18.6718 45.713 19 46.2318 19H47.0641C47.7196 19 48.2183 18.4853 48.1108 17.9196L44.8168 0.806336C44.7317 0.358671 44.2889 0.0304967 43.7701 0.0304967L42.05 0.0304974C41.5415 0.0304974 41.1045 0.346058 41.0082 0.782794L37.2055 17.8961C37.0792 18.4686 37.5807 19 38.2473 19H39.2174C39.7259 19 40.1629 18.6844 40.2593 18.2477L40.7846 15.8658C40.8039 15.7784 40.8913 15.7153 40.993 15.7153H44.5283C44.6321 15.7153 44.7206 15.781 44.7376 15.8705L45.1851 18.2242ZM43.969 13.1447C44.1001 13.1447 44.1998 13.0418 44.1783 12.9286L43.1009 7.2618C43.0621 7.0576 42.728 7.05383 42.6832 7.25709L41.4334 12.9239C41.4081 13.0384 41.5084 13.1447 41.6418 13.1447H43.969Z" fill="#9F47F6"/>
</svg>
