<svg width="253" height="85" viewBox="0 0 253 85" fill="none" xmlns="http://www.w3.org/2000/svg">
<g filter="url(#filter0_i_340_729)">
<path d="M157.03 28.2826C160.353 22.8423 168.884 24.2293 170.173 30.4196L179.733 76.3046C180.621 80.5644 177.243 84.5414 172.738 84.5414H135.15C129.63 84.5414 126.2 78.755 129.002 74.1678L157.03 28.2826Z" fill="#FB771A"/>
</g>
<g filter="url(#filter1_i_340_729)">
<path d="M148.056 59.9404C144.726 65.3163 136.285 63.9564 134.948 57.8282L124.14 8.29819C123.206 4.02137 126.59 -3.8208e-07 131.123 0L172.615 3.49808e-06C178.155 3.96518e-06 181.582 5.82368 178.741 10.4104L148.056 59.9404Z" fill="#A03FFF" fill-opacity="0.8"/>
</g>
<path fill-rule="evenodd" clip-rule="evenodd" d="M68.5506 24.6063C67.5825 24.6098 66.7443 25.2654 66.5428 26.1765L60.24 54.6657C60.0851 55.3666 59.043 55.3531 58.9074 54.6483L53.4473 26.254C53.2676 25.32 52.4195 24.6373 51.432 24.6321L44.5112 24.5958C43.2346 24.5891 42.2744 25.6965 42.5102 26.9038L49.3749 62.0489C49.5673 63.0339 50.4996 63.7285 51.5384 63.6607L53.5645 63.5283C53.957 63.5024 54.29 63.8026 54.29 64.182V82.2507C54.29 83.3363 55.203 84.2168 56.3287 84.2168H64.3002C65.4262 84.2168 66.3389 83.3363 66.3389 82.2507V64.1591C66.3389 63.7793 66.6729 63.4792 67.0657 63.5054L68.5268 63.603C69.5523 63.6715 70.4775 62.9962 70.6862 62.0269L78.2421 26.9221C78.5037 25.7059 77.5424 24.5739 76.2516 24.5785L68.5506 24.6063Z" fill="#A03FFF"/>
<path fill-rule="evenodd" clip-rule="evenodd" d="M111.55 24.5366C111.609 24.5308 111.667 24.5216 111.724 24.5091C111.935 24.4631 112.153 24.4358 112.378 24.4292L116.643 24.3039C118.339 24.254 119.814 25.4199 120.096 27.0344L126.191 61.8964C126.334 62.7165 126.149 63.5587 125.672 64.2517L120.797 71.3426C119.957 72.5639 118.004 72.189 117.714 70.7505L115.325 58.9273C115.112 57.8686 113.542 57.8663 113.325 58.9244L108.688 81.5179C108.374 83.0492 106.983 84.1537 105.365 84.1587L105.142 84.1593C105.077 84.1593 105.012 84.1662 104.947 84.1767C104.758 84.2071 104.564 84.2229 104.366 84.2222L100.303 84.2104C98.6847 84.2058 97.2942 83.1009 96.9799 81.57L92.1294 57.9364C91.9127 56.88 90.3462 56.88 90.1295 57.9364L85.2113 81.8977C84.8974 83.4289 83.507 84.5338 81.8882 84.5384L77.8257 84.5499C75.6871 84.5561 74.0744 82.6786 74.4791 80.6535L85.0836 27.5565C85.3405 26.2703 86.3564 25.2812 87.632 24.9884C87.736 24.9645 87.8372 24.9298 87.9331 24.8848C88.3812 24.675 88.8868 24.557 89.4257 24.5586L93.7822 24.5717C95.4071 24.5765 96.8009 25.69 97.108 27.2287L101.828 50.8606C102.04 51.9232 103.617 51.9232 103.83 50.8606L108.56 27.1767C108.846 25.7453 110.072 24.6818 111.55 24.5366Z" fill="#A03FFF"/>
<path fill-rule="evenodd" clip-rule="evenodd" d="M33.6466 24.2483C34.6435 24.2483 35.4944 24.9436 35.6578 25.892L36.9826 33.5792C37.1892 34.7775 36.231 35.8677 34.9714 35.8677H17.4853C16.9485 35.8677 16.4212 36.004 15.9563 36.2629L13.578 37.587C12.6318 38.1139 12.0489 39.0874 12.0489 40.1409V67.9439C12.0489 68.9973 12.6318 69.9709 13.578 70.4978L16.3149 72.0215C16.7798 72.2803 17.3071 72.4166 17.844 72.4166H29.3949C31.3094 72.4166 32.7531 70.7396 32.4008 68.9249L28.1663 47.1106C27.9321 45.9044 28.8912 44.7988 30.1665 44.8047L37.0744 44.8368C38.0686 44.8414 38.9211 45.5328 39.0937 46.4749L45.5375 81.626C45.7567 82.822 44.8069 83.9115 43.5446 83.9121L37.0234 83.9161C36.9918 83.9161 36.9605 83.9154 36.9293 83.9141C36.7495 83.9063 36.5705 83.8853 36.3907 83.8853H15.2905C14.9512 83.8853 14.6097 83.8387 14.2706 83.8256C13.6854 83.803 13.0972 83.6467 12.5548 83.3449L1.87784 77.4002C0.773842 76.7855 0.118027 75.7098 0.0209554 74.5708C0.00713435 74.4708 0 74.3689 0 74.265V33.9609C0 33.8944 0.00293532 33.8285 0.00868783 33.7637C0.0248488 32.534 0.693414 31.3438 1.87785 30.6843L12.5548 24.7397C13.1519 24.4073 13.8045 24.2518 14.4475 24.2563C14.502 24.2567 14.5565 24.2483 14.6111 24.2483H33.6466Z" fill="#A03FFF"/>
<path fill-rule="evenodd" clip-rule="evenodd" d="M205.81 24.5933C205.81 24.5851 205.804 24.5785 205.795 24.5785H182.705H181.743C179.602 24.5785 177.994 26.4648 178.409 28.4903L189.277 81.5416C189.591 83.0732 190.981 84.1788 192.6 84.1834L196.658 84.1952C198.798 84.2011 200.411 82.3215 200.004 80.2955L197.38 67.2222C197.137 66.0092 198.1 64.8826 199.382 64.8826H206.814H206.824H211.912H211.923H212.854C212.904 64.8826 212.946 64.843 212.946 64.7938C212.946 64.7551 212.972 64.7211 213.01 64.7086C214.556 64.201 215.572 62.6534 215.252 61.0036L208.707 27.253C208.435 25.8488 207.258 24.7945 205.824 24.6079C205.816 24.607 205.81 24.6007 205.81 24.5933ZM199.088 33.7197C198.908 32.7894 198.066 32.115 197.084 32.115H192.805C191.523 32.115 190.56 33.2416 190.803 34.4546L195.078 55.7536C195.264 56.6783 196.103 57.3461 197.08 57.3461H201.214C202.49 57.3461 203.453 56.2284 203.218 55.0186L199.088 33.7197Z" fill="#FB771A"/>
<path fill-rule="evenodd" clip-rule="evenodd" d="M243.235 24.917C243.235 24.9088 243.228 24.9022 243.22 24.9022H220.13H219.168C217.027 24.9022 215.419 26.7886 215.834 28.814L226.702 81.8654C227.016 83.3969 228.406 84.5025 230.025 84.5071L234.083 84.5189C236.223 84.5248 237.836 82.6452 237.429 80.6192L234.805 67.5459C234.562 66.3329 235.525 65.2063 236.807 65.2063H244.239H244.249H249.337H249.348H250.279C250.33 65.2063 250.371 65.1667 250.371 65.1175C250.371 65.0789 250.397 65.0448 250.435 65.0323C251.981 64.5248 252.997 62.9772 252.677 61.3273L246.133 27.5767C245.86 26.1725 244.683 25.1182 243.249 24.9317C243.241 24.9307 243.235 24.9244 243.235 24.917ZM236.513 34.0434C236.333 33.1131 235.491 32.4388 234.509 32.4388H230.23C228.948 32.4388 227.985 33.5653 228.228 34.7784L232.503 56.0773C232.689 57.002 233.528 57.6698 234.505 57.6698H238.639C239.915 57.6698 240.878 56.5521 240.643 55.3423L236.513 34.0434Z" fill="#FB771A"/>
<defs>
<filter id="filter0_i_340_729" x="128.004" y="24.8904" width="51.8715" height="60.7421" filterUnits="userSpaceOnUse" color-interpolation-filters="sRGB">
<feFlood flood-opacity="0" result="BackgroundImageFix"/>
<feBlend mode="normal" in="SourceGraphic" in2="BackgroundImageFix" result="shape"/>
<feColorMatrix in="SourceAlpha" type="matrix" values="0 0 0 0 0 0 0 0 0 0 0 0 0 0 0 0 0 0 127 0" result="hardAlpha"/>
<feOffset dy="1.09112"/>
<feGaussianBlur stdDeviation="0.54556"/>
<feComposite in2="hardAlpha" operator="arithmetic" k2="-1" k3="1"/>
<feColorMatrix type="matrix" values="0 0 0 0 0 0 0 0 0 0 0 0 0 0 0 0 0 0 0.25 0"/>
<feBlend mode="normal" in2="shape" result="effect1_innerShadow_340_729"/>
</filter>
<filter id="filter1_i_340_729" x="123.984" y="0" width="55.7773" height="64.3869" filterUnits="userSpaceOnUse" color-interpolation-filters="sRGB">
<feFlood flood-opacity="0" result="BackgroundImageFix"/>
<feBlend mode="normal" in="SourceGraphic" in2="BackgroundImageFix" result="shape"/>
<feColorMatrix in="SourceAlpha" type="matrix" values="0 0 0 0 0 0 0 0 0 0 0 0 0 0 0 0 0 0 127 0" result="hardAlpha"/>
<feOffset dy="1.09112"/>
<feGaussianBlur stdDeviation="0.54556"/>
<feComposite in2="hardAlpha" operator="arithmetic" k2="-1" k3="1"/>
<feColorMatrix type="matrix" values="0 0 0 0 0 0 0 0 0 0 0 0 0 0 0 0 0 0 0.25 0"/>
<feBlend mode="normal" in2="shape" result="effect1_innerShadow_340_729"/>
</filter>
</defs>
</svg>
