<svg width="12" height="12" viewBox="0 0 12 12" fill="none" xmlns="http://www.w3.org/2000/svg">
<mask id="mask0_455_1521" style="mask-type:alpha" maskUnits="userSpaceOnUse" x="0" y="0" width="12" height="12">
<path d="M0.411792 4.21969C0.345203 4.24188 0.286176 4.28231 0.241428 4.33639C0.19668 4.39046 0.168006 4.45601 0.158668 4.52557C0.14933 4.59514 0.159703 4.66593 0.188607 4.72989C0.217511 4.79385 0.263785 4.84842 0.322166 4.88738L3.63832 6.71543C3.70013 6.74949 3.77029 6.76541 3.84074 6.76138C3.9112 6.75735 3.97908 6.73351 4.0366 6.69262L7.55958 4.18045C7.72982 4.06643 7.93346 4.27008 7.81944 4.44031L5.30727 7.96329C5.26638 8.02081 5.24255 8.0887 5.23851 8.15915C5.23448 8.2296 5.25041 8.29977 5.28446 8.36157L7.11251 11.6777C7.15148 11.7361 7.20604 11.7824 7.27 11.8113C7.33396 11.8402 7.40475 11.8506 7.47432 11.8412C7.54388 11.8319 7.60943 11.8032 7.66351 11.7585C7.71758 11.7137 7.75801 11.6547 7.7802 11.5881L11.2273 1.24666C11.2493 1.18063 11.2524 1.1098 11.2364 1.04209C11.2204 0.974375 11.1858 0.912454 11.1366 0.863253C11.0874 0.814052 11.0255 0.77951 10.9578 0.763491C10.8901 0.747472 10.8193 0.750608 10.7532 0.772549L0.411792 4.21969Z" fill="white"/>
</mask>
<g mask="url(#mask0_455_1521)">
<rect width="12" height="12" fill="white"/>
</g>
</svg>
